<?xml version="1.0" encoding="UTF-8"?>
<svg xmlns="http://www.w3.org/2000/svg" viewBox="0 0 500 500">
  <g fill="#005586">
    <path d="M250 30c-121.5 0-220 98.5-220 220s98.5 220 220 220 220-98.5 220-220S371.5 30 250 30zm0 420c-110.5 0-200-89.5-200-200S139.5 50 250 50s200 89.5 200 200-89.5 200-200 200z"/>
    <path d="M250 100c-27.6 0-50 22.4-50 50v200c0 27.6 22.4 50 50 50s50-22.4 50-50V150c0-27.6-22.4-50-50-50zm30 250c0 16.6-13.4 30-30 30s-30-13.4-30-30V150c0-16.6 13.4-30 30-30s30 13.4 30 30v200z"/>
    <path d="M180 180h140v20H180zM180 300h140v20H180z"/>
    <path d="M250 160c-11 0-20 9-20 20s9 20 20 20 20-9 20-20-9-20-20-20zm0 160c-11 0-20 9-20 20s9 20 20 20 20-9 20-20-9-20-20-20z"/>
  </g>
  <path d="M250 70c-99.4 0-180 80.6-180 180s80.6 180 180 180 180-80.6 180-180S349.4 70 250 70zm0 340c-88.4 0-160-71.6-160-160s71.6-160 160-160 160 71.6 160 160-71.6 160-160 160z" fill="#003366"/>
</svg>
